<svg width="19" height="19" viewBox="0 0 19 19" fill="none" xmlns="http://www.w3.org/2000/svg">
<path d="M11.2454 7.39773V9.81871H13.4159C13.5829 9.81871 13.6664 9.98568 13.6664 10.1526L13.3324 11.7388C13.3324 11.8223 13.1655 11.9058 13.082 11.9058H11.2454V18H8.74093V11.9892H7.32174C7.15477 11.9892 7.07129 11.9058 7.07129 11.7388V10.1526C7.07129 9.98568 7.15477 9.90219 7.32174 9.90219H8.74093V7.14728C8.74093 5.72809 9.8262 4.64282 11.2454 4.64282H13.4994C13.6664 4.64282 13.7499 4.7263 13.7499 4.89327V6.89684C13.7499 7.0638 13.6664 7.14728 13.4994 7.14728H11.4958C11.3289 7.14728 11.2454 7.23077 11.2454 7.39773Z" stroke="#17191C" stroke-width="1.21428" stroke-miterlimit="10" stroke-linecap="round"/>
<path d="M12.05 18H6.95C2.7 18 1 16.3 1 12.05V6.95C1 2.7 2.7 1 6.95 1H12.05C16.3 1 18 2.7 18 6.95V12.05C18 16.3 16.3 18 12.05 18Z" stroke="#17191C" stroke-width="1.21428" stroke-linecap="round" stroke-linejoin="round"/>
</svg>
