<svg width="16" height="16" viewBox="0 0 16 16" fill="none" xmlns="http://www.w3.org/2000/svg">
<path d="M11.6691 0H4.33105C1.94287 0 0 1.94287 0 4.33105V11.6689C0 14.0571 1.94287 16 4.33105 16H11.6691C14.0571 16 16 14.0571 16 11.6689V4.33105C16 1.94287 14.0571 0 11.6691 0Z" fill="#292D32"/>
<path d="M14.8149 8.41172L12.1216 5.46564C11.8963 5.21911 11.58 5.09047 11.2529 5.1126C10.9262 5.13474 10.6284 5.30508 10.4358 5.57997L6.93005 10.584C6.88564 10.6473 6.82485 10.6625 6.79258 10.6658C6.76042 10.6691 6.69799 10.6669 6.64239 10.6138L4.65585 8.72074C4.23849 8.32282 3.58519 8.32343 3.16842 8.72172L1.1853 10.6168V4.58433C1.1853 2.71007 2.65412 1.1853 4.4596 1.1853H11.5408C13.3461 1.1853 14.8149 2.71007 14.8149 4.58433V8.41172Z" fill="white"/>
<path d="M4.44437 2.96289C3.62754 2.96289 2.96289 3.62752 2.96289 4.44443C2.96289 5.26122 3.62754 5.92585 4.44437 5.92585C5.26131 5.92585 5.92585 5.26122 5.92585 4.44443C5.92596 3.62752 5.26131 2.96289 4.44437 2.96289Z" fill="#191A1B"/>
</svg>
