<svg width="19" height="19" viewBox="0 0 19 19" fill="none" xmlns="http://www.w3.org/2000/svg">
<path d="M17.8684 14.7937C17.8684 15.0978 17.8008 15.4104 17.6572 15.7144C17.5136 16.0185 17.3278 16.3057 17.0828 16.576C16.6689 17.0322 16.2128 17.3616 15.6975 17.5728C15.1907 17.7839 14.6417 17.8937 14.0504 17.8937C13.1888 17.8937 12.2681 17.691 11.2967 17.2771C10.3253 16.8632 9.35395 16.3057 8.39101 15.6046C7.41962 14.8951 6.49891 14.1095 5.62044 13.2395C4.75041 12.361 3.96485 11.4403 3.26376 10.4774C2.57112 9.51444 2.01362 8.5515 1.60817 7.597C1.20272 6.63406 1 5.71335 1 4.83488C1 4.26049 1.10136 3.71144 1.30409 3.20463C1.50681 2.68937 1.82779 2.21635 2.27548 1.79401C2.81608 1.26185 3.40736 1 4.03243 1C4.26894 1 4.50545 1.05068 4.71662 1.15204C4.93624 1.25341 5.13052 1.40545 5.28256 1.62507L7.24223 4.38719C7.39428 4.59837 7.50409 4.79264 7.58011 4.97847C7.65613 5.15586 7.69837 5.33324 7.69837 5.49373C7.69837 5.69646 7.63924 5.89918 7.52098 6.09346C7.41117 6.28774 7.25068 6.49046 7.04796 6.69319L6.40599 7.36049C6.31308 7.45341 6.27084 7.56322 6.27084 7.69837C6.27084 7.76594 6.27929 7.82507 6.29619 7.89264C6.32153 7.96022 6.34687 8.0109 6.36376 8.06158C6.5158 8.34033 6.77766 8.70354 7.14932 9.14278C7.52943 9.58202 7.93488 10.0297 8.37411 10.4774C8.83024 10.9251 9.26948 11.339 9.71717 11.7191C10.1564 12.0907 10.5196 12.3441 10.8068 12.4962C10.849 12.5131 10.8997 12.5384 10.9589 12.5638C11.0264 12.5891 11.094 12.5975 11.17 12.5975C11.3136 12.5975 11.4234 12.5469 11.5163 12.454L12.1583 11.8204C12.3695 11.6093 12.5722 11.4488 12.7665 11.3474C12.9608 11.2292 13.155 11.17 13.3662 11.17C13.5267 11.17 13.6956 11.2038 13.8815 11.2798C14.0673 11.3559 14.2616 11.4657 14.4728 11.6093L17.2687 13.5943C17.4883 13.7463 17.6403 13.9237 17.7332 14.1349C17.8177 14.346 17.8684 14.5572 17.8684 14.7937Z" stroke="#292D32" stroke-width="1.26703" stroke-miterlimit="10"/>
</svg>
