<svg width="19" height="19" viewBox="0 0 19 19" fill="none" xmlns="http://www.w3.org/2000/svg">
<path d="M17.8937 9.44687C17.8937 4.7842 14.1095 1 9.44687 1C4.7842 1 1 4.7842 1 9.44687C1 14.1095 4.7842 17.8937 9.44687 17.8937" stroke="#292D32" stroke-width="1.26703" stroke-linecap="round" stroke-linejoin="round"/>
<path d="M6.06816 1.84473H6.91284C5.26571 6.7777 5.26571 12.1161 6.91284 17.0491H6.06816" stroke="#292D32" stroke-width="1.26703" stroke-linecap="round" stroke-linejoin="round"/>
<path d="M11.9812 1.84473C12.8005 4.31121 13.2144 6.87906 13.2144 9.44691" stroke="#292D32" stroke-width="1.26703" stroke-linecap="round" stroke-linejoin="round"/>
<path d="M1.84473 12.8256V11.981C4.31121 12.8003 6.87906 13.2142 9.44691 13.2142" stroke="#292D32" stroke-width="1.26703" stroke-linecap="round" stroke-linejoin="round"/>
<path d="M1.84473 6.91309C6.7777 5.26595 12.1161 5.26595 17.0491 6.91309" stroke="#292D32" stroke-width="1.26703" stroke-linecap="round" stroke-linejoin="round"/>
<path d="M14.6842 17.387C16.177 17.387 17.3872 16.1768 17.3872 14.684C17.3872 13.1911 16.177 11.981 14.6842 11.981C13.1914 11.981 11.9812 13.1911 11.9812 14.684C11.9812 16.1768 13.1914 17.387 14.6842 17.387Z" stroke="#292D32" stroke-width="1.26703" stroke-linecap="round" stroke-linejoin="round"/>
<path d="M17.8947 17.8945L17.0493 17.0491" stroke="#292D32" stroke-width="1.26703" stroke-linecap="round" stroke-linejoin="round"/>
</svg>
