<svg width="19" height="19" viewBox="0 0 19 19" fill="none" xmlns="http://www.w3.org/2000/svg">
<path d="M5.165 16.81C6.44 17.575 7.97 18 9.49999 18C14.175 18 18 14.175 18 9.49999C18 4.825 14.175 1 9.49999 1C4.825 1 1 4.825 1 9.49999C1 11.03 1.425 12.475 2.105 13.75L1.26741 16.9715C1.14919 17.4262 1.57006 17.8371 2.02181 17.708L5.165 16.81Z" stroke="#17191C" stroke-width="1.21428" stroke-miterlimit="10" stroke-linecap="round" stroke-linejoin="round"/>
<path d="M13.1426 11.806C13.1426 11.9371 13.1135 12.0719 13.0514 12.203C12.9894 12.3342 12.9091 12.458 12.8033 12.5746C12.6246 12.7713 12.4276 12.9134 12.205 13.0045C11.9861 13.0955 11.749 13.1429 11.4936 13.1429C11.1215 13.1429 10.7238 13.0555 10.3042 12.877C9.88469 12.6985 9.46513 12.458 9.04922 12.1557C8.62966 11.8497 8.23199 11.5109 7.85257 11.1357C7.47679 10.7568 7.1375 10.3597 6.83469 9.94446C6.53552 9.52917 6.29473 9.11389 6.11961 8.70225C5.94449 8.28696 5.85693 7.88989 5.85693 7.51103C5.85693 7.26332 5.90071 7.02653 5.98827 6.80796C6.07583 6.58575 6.21447 6.38175 6.40783 6.19961C6.64132 5.97011 6.89671 5.85718 7.16668 5.85718C7.26884 5.85718 7.37099 5.87903 7.4622 5.92275C7.55705 5.96646 7.64097 6.03203 7.70664 6.12675L8.55305 7.31796C8.61872 7.40903 8.66615 7.49282 8.69898 7.57296C8.73181 7.64946 8.75006 7.72596 8.75006 7.79518C8.75006 7.8826 8.72452 7.97003 8.67344 8.05382C8.62601 8.1376 8.5567 8.22503 8.46914 8.31246L8.19186 8.60025C8.15173 8.64032 8.13349 8.68768 8.13349 8.74596C8.13349 8.7751 8.13714 8.8006 8.14443 8.82975C8.15538 8.85889 8.16632 8.88075 8.17362 8.9026C8.23929 9.02282 8.35239 9.17946 8.51292 9.36889C8.67709 9.55832 8.85221 9.75139 9.04192 9.94446C9.23893 10.1375 9.42865 10.316 9.62201 10.48C9.81172 10.6402 9.9686 10.7495 10.0926 10.8151C10.1109 10.8224 10.1328 10.8333 10.1583 10.8442C10.1875 10.8552 10.2167 10.8588 10.2495 10.8588C10.3115 10.8588 10.359 10.837 10.3991 10.7969L10.6764 10.5237C10.7676 10.4326 10.8551 10.3634 10.9391 10.3197C11.023 10.2687 11.1069 10.2432 11.1981 10.2432C11.2674 10.2432 11.3404 10.2577 11.4206 10.2905C11.5009 10.3233 11.5848 10.3707 11.676 10.4326L12.8836 11.2887C12.9785 11.3542 13.0441 11.4307 13.0843 11.5218C13.1208 11.6129 13.1426 11.704 13.1426 11.806Z" stroke="#17191C" stroke-width="1.21428" stroke-miterlimit="10"/>
</svg>
